<svg xmlns="http://www.w3.org/2000/svg" xmlns:xlink="http://www.w3.org/1999/xlink" xmlns:serif="http://www.serif.com/" viewBox="0 0 48 60" version="1.1" xml:space="preserve" style="" x="0px" y="0px" fill-rule="evenodd" clip-rule="evenodd" stroke-linejoin="round" stroke-miterlimit="2"><g transform="matrix(1,0,0,1,-48,-48)"><g><path d="M72,51C81.383,51 89,58.617 89,68C89,72.938 86.369,77.949 83.164,82.164C78.472,88.335 72.606,92.796 72.606,92.796C72.606,92.796 72.605,92.796 72.605,92.796C72.248,93.068 71.752,93.068 71.395,92.796C71.395,92.796 71.394,92.796 71.394,92.796C71.394,92.796 65.528,88.335 60.836,82.164C57.631,77.949 55,72.938 55,68C55,58.617 62.617,51 72,51ZM72,61C68.137,61 65,64.137 65,68C65,71.863 68.137,75 72,75C75.863,75 79,71.863 79,68C79,64.137 75.863,61 72,61Z"/></g></g></svg>