<svg xmlns="http://www.w3.org/2000/svg" xmlns:xlink="http://www.w3.org/1999/xlink" version="1.1" x="0px" y="0px" viewBox="0 0 100 125" style="enable-background:new 0 0 100 100;" xml:space="preserve"><path d="M69.74,30.26c-0.78-0.78-2.05-0.78-2.83,0L50,47.17L33.09,30.26c-0.78-0.78-2.05-0.78-2.83,0c-0.78,0.78-0.78,2.05,0,2.83  L47.17,50L30.26,66.91c-0.78,0.78-0.78,2.05,0,2.83c0.39,0.39,0.9,0.59,1.41,0.59s1.02-0.2,1.41-0.59L50,52.83l16.91,16.91  c0.39,0.39,0.9,0.59,1.41,0.59s1.02-0.2,1.41-0.59c0.78-0.78,0.78-2.05,0-2.83L52.83,50l16.91-16.91  C70.52,32.31,70.52,31.04,69.74,30.26z"/><path d="M50,8C26.84,8,8,26.84,8,50s18.84,42,42,42s42-18.84,42-42S73.16,8,50,8z M50,88c-20.95,0-38-17.05-38-38s17.05-38,38-38  s38,17.05,38,38S70.95,88,50,88z"/></svg>